<svg width="40" height="40" viewBox="0 0 40 40" fill="none" xmlns="http://www.w3.org/2000/svg">
<g clip-path="url(#clip0_102_16)">
<circle cx="11.8644" cy="32.3107" r="5" transform="rotate(16 11.8644 32.3107)" fill="white"/>
<path fill-rule="evenodd" clip-rule="evenodd" d="M5.69382 21.1786L32.6092 28.8964L30.9553 34.664L36.7229 36.3178L36.4473 37.2791L30.6797 35.6253C30.3752 36.687 29.2677 37.301 28.2059 36.9965L17.632 33.9645C18.5454 30.7791 16.7036 27.4565 13.5183 26.5431C10.3329 25.6297 7.01026 27.4715 6.09687 30.6568L5.13561 30.3812C4.07383 30.0767 3.4599 28.9692 3.76436 27.9074L5.69382 21.1786Z" fill="white"/>
<path fill-rule="evenodd" clip-rule="evenodd" d="M12.3022 5.3884C12.9111 3.26484 15.1262 2.03698 17.2498 2.6459L32.63 7.0561C34.7535 7.66502 35.9814 9.88013 35.3725 12.0037L30.9623 27.3839L7.89198 20.7686L12.3022 5.3884ZM15.186 6.21531C15.3382 5.68442 15.892 5.37745 16.4229 5.52968L18.3454 6.08096C18.8763 6.23319 19.1832 6.78697 19.031 7.31786L16.2746 16.9305C16.1224 17.4614 15.5686 17.7683 15.0377 17.6161L13.1152 17.0648C12.5843 16.9126 12.2774 16.3588 12.4296 15.8279L15.186 6.21531ZM23.1517 7.45915C22.6208 7.30692 22.067 7.61388 21.9148 8.14477L20.5366 12.9511C20.3844 13.482 20.6913 14.0357 21.2222 14.188L23.1448 14.7393C23.6757 14.8915 24.2294 14.5845 24.3817 14.0536L25.7598 9.24732C25.9121 8.71643 25.6051 8.16265 25.0742 8.01042L23.1517 7.45915ZM28.6436 10.0742C28.7959 9.54334 29.3496 9.23638 29.8805 9.38861L31.8031 9.93988C32.3339 10.0921 32.6409 10.6459 32.4887 11.1768L28.6298 24.6344C28.4775 25.1653 27.9237 25.4723 27.3929 25.3201L25.4703 24.7688C24.9394 24.6166 24.6325 24.0628 24.7847 23.5319L28.6436 10.0742Z" fill="white"/>
</g>
<defs>
<clipPath id="clip0_102_16">
<rect width="40" height="40" fill="white"/>
</clipPath>
</defs>
</svg>
