<?xml version="1.0" standalone="no"?>
<!DOCTYPE svg PUBLIC "-//W3C//DTD SVG 20010904//EN"
 "http://www.w3.org/TR/2001/REC-SVG-20010904/DTD/svg10.dtd">
<svg version="1.0" xmlns="http://www.w3.org/2000/svg"
 width="700.000000pt" height="700.000000pt" viewBox="0 0 700.000000 700.000000"
 preserveAspectRatio="xMidYMid meet">
<metadata>
Created by potrace 1.14, written by Peter Selinger 2001-2017
</metadata>
<g transform="translate(0.000000,700.000000) scale(0.100000,-0.100000)"
fill="#000000" stroke="none">
<path d="M2720 6555 c-168 -29 -288 -93 -401 -212 -66 -71 -115 -145 -142
-218 -19 -50 -31 -89 -171 -580 -63 -220 -172 -598 -241 -840 -163 -567 -206
-717 -210 -735 -2 -8 -42 -145 -88 -305 -46 -159 -82 -293 -78 -297 5 -5 582
-174 781 -229 36 -9 232 -65 435 -124 727 -210 1102 -317 1225 -351 69 -19
139 -39 155 -45 32 -10 190 -56 240 -69 62 -16 781 -222 795 -227 8 -3 20 -7
25 -8 24 -6 129 -36 244 -70 68 -20 125 -34 127 -32 2 2 17 50 34 108 16 57
34 118 39 134 6 17 82 284 171 595 89 311 173 603 187 650 14 47 28 99 33 115
10 40 197 690 256 891 64 218 81 307 78 400 -2 97 -11 148 -37 220 -25 68 -63
138 -108 194 -125 159 -229 213 -594 313 -49 14 -187 53 -305 87 -118 34 -231
67 -250 72 -19 5 -48 13 -65 18 -79 22 -1002 288 -1170 337 -104 30 -197 56
-205 58 -16 3 -214 60 -265 76 -248 77 -370 95 -495 74z m215 -541 c28 -8 57
-17 65 -19 8 -1 42 -10 75 -20 183 -51 218 -71 248 -145 26 -61 51 39 -349
-1353 -78 -273 -143 -480 -155 -496 -58 -78 -125 -82 -334 -22 -211 61 -237
70 -263 98 -61 66 -65 124 -19 273 14 47 44 150 67 230 102 360 202 708 211
735 5 17 48 164 94 328 47 164 92 311 100 327 16 32 68 75 100 83 29 8 103 -1
160 -19z m1147 -328 c24 -7 95 -28 158 -45 202 -56 237 -77 265 -157 17 -50
15 -60 -67 -344 -39 -135 -74 -258 -78 -275 -18 -73 -101 -348 -109 -363 -23
-43 -84 -80 -141 -88 -35 -4 -408 103 -447 129 -64 43 -89 130 -62 217 5 19
32 112 59 205 153 537 183 633 203 662 43 65 130 88 219 59z m1333 -382 c88
-25 177 -57 198 -70 80 -52 93 -114 53 -255 -13 -46 -26 -93 -29 -104 -3 -11
-30 -108 -62 -215 -31 -107 -58 -202 -60 -210 -2 -8 -34 -118 -70 -245 -37
-126 -73 -252 -80 -280 -15 -56 -129 -453 -144 -500 -5 -16 -55 -192 -111
-390 -104 -368 -123 -415 -177 -447 -60 -35 -94 -32 -306 29 -217 62 -253 81
-282 151 -21 50 -19 74 19 208 19 65 161 560 316 1099 154 539 283 987 285
996 2 9 17 62 35 118 34 111 62 145 137 167 45 13 60 10 278 -52z"/>
<path d="M963 3178 c-54 -195 -202 -711 -220 -768 -9 -30 -18 -59 -19 -65 -1
-5 -19 -68 -39 -138 -50 -172 -49 -249 0 -347 50 -97 119 -147 271 -193 l112
-33 12 40 c40 138 144 303 262 419 356 351 897 400 1325 121 75 -49 228 -202
278 -279 127 -194 185 -396 179 -622 -1 -54 -7 -119 -13 -146 -6 -26 -13 -62
-16 -80 l-5 -32 187 -54 c104 -29 224 -64 268 -77 44 -12 105 -30 135 -38 30
-8 143 -40 250 -72 107 -31 224 -65 260 -75 36 -9 106 -29 155 -44 50 -15 113
-33 140 -40 28 -8 151 -43 275 -79 259 -74 314 -79 415 -32 68 31 146 107 174
170 23 53 17 52 121 23 30 -9 87 -25 125 -36 39 -11 229 -65 424 -121 280 -81
355 -99 362 -89 10 17 43 149 38 154 -2 2 -227 67 -499 145 -272 78 -496 143
-498 145 -2 2 15 68 38 147 23 78 44 152 47 163 13 46 153 534 166 578 8 26
13 47 11 47 -2 0 3 18 11 40 12 35 12 40 -1 40 -8 0 -36 7 -62 15 -43 13 -509
147 -577 165 -26 7 -72 20 -305 87 -30 9 -74 22 -97 29 -23 8 -75 22 -115 33
-40 11 -174 49 -298 85 -402 116 -1243 357 -1310 375 -99 28 -1776 510 -1849
532 -35 10 -68 19 -75 19 -6 0 -26 -51 -43 -112z"/>
<path d="M1911 2205 c-197 -43 -344 -126 -477 -268 -357 -383 -290 -1008 140
-1305 165 -115 324 -162 526 -157 495 12 874 423 847 920 -15 281 -155 524
-392 679 -44 29 -109 65 -145 79 -57 23 -84 32 -175 54 -49 12 -263 11 -324
-2z"/>
</g>
</svg>
